<svg xmlns="http://www.w3.org/2000/svg" viewBox="0 0 24 24" fill="#ffffff">
  <rect width="24" height="24" fill="#0d1117"/>
  <path d="M12 .5C5.65.5.5 5.65.5 12c0 5.08 3.29 9.39 7.86 10.91.58.11.79-.25.79-.56 0-.28-.01-1.02-.02-2-3.2.7-3.88-1.54-3.88-1.54-.52-1.33-1.27-1.68-1.27-1.68-1.04-.71.08-.7.08-.7 1.15.08 1.76 1.18 1.76 1.18 1.02 1.75 2.68 1.24 3.34.95.1-.74.4-1.24.72-1.53-2.55-.29-5.24-1.28-5.24-5.7 0-1.26.45-2.29 1.18-3.1-.12-.29-.51-1.46.11-3.04 0 0 .96-.31 3.15 1.18a10.95 10.95 0 0 1 5.74 0c2.19-1.49 3.15-1.18 3.15-1.18.62 1.58.23 2.75.11 3.04.73.81 1.18 1.84 1.18 3.1 0 4.43-2.69 5.4-5.25 5.69.41.36.78 1.07.78 2.16 0 1.56-.01 2.82-.01 3.2 0 .31.21.68.8.56C20.71 21.39 24 17.08 24 12 24 5.65 18.85.5 12 .5z" fill="#ffffff"/>
</svg>
